<svg width="99" height="120" viewBox="0 0 99 120" fill="none" xmlns="http://www.w3.org/2000/svg">
<g clip-path="url(#clip0_101_23)">
<path d="M49.5967 9.77673C63.6623 23.0037 71.1707 39.3146 70.8984 56.0517V60.047L75.5391 62.1387C81.5351 64.8274 86.0069 68.9976 88.1397 73.8895C86.2671 72.8683 84.3082 71.9342 82.2744 71.0928L69.8994 65.9459L67.6758 76.3337C67.4832 77.2516 67.225 78.1616 66.9023 79.0599H32.2266C31.7109 77.8848 31.292 76.7097 30.9053 75.4877L28.1016 66.087L16.6934 70.7873C14.7875 71.5768 12.9473 72.4479 11.1826 73.396C13.3569 68.5607 17.7353 64.4138 23.5898 61.6451L28.0049 59.5535V55.8402C28.0845 39.171 35.6833 22.9841 49.6289 9.77673H49.5967ZM49.6289 0C48.9057 0.00130102 48.2075 0.193285 47.6631 0.540541L47.373 0.728555C28.7898 15.8855 18.4708 35.4848 18.3691 55.8167C10.4833 59.5478 4.64606 65.1811 1.87747 71.7323C-0.891121 78.2834 -0.414991 85.3357 3.22266 91.6569C7.05472 85.4849 13.4607 80.3527 21.5273 76.9918C22.3364 79.5474 23.4137 82.0538 24.75 84.4888C24.9195 84.9569 25.2951 85.3715 25.8191 85.6687C26.3431 85.9659 26.9866 86.1294 27.6504 86.134H72.3809C73.2832 86.134 74.1855 85.4994 74.6367 84.5123C75.9409 82.1973 76.8501 79.7741 77.3438 77.2973C85.4259 80.6442 91.837 85.7806 95.6484 91.9624C99.5056 85.6724 100.103 78.5756 97.3292 71.9889C94.5556 65.4022 88.5995 59.7729 80.5664 56.1457C80.8851 35.6939 70.6207 15.906 51.8203 0.728555C51.5403 0.500282 51.1977 0.317466 50.8147 0.191957C50.4316 0.0664481 50.0166 0.00104916 49.5967 0L49.6289 0Z" fill="#4EA8DE"/>
<path d="M49.5967 53.866C47.1214 53.866 44.7015 53.3315 42.6421 52.3301C40.5827 51.3286 38.9759 49.9049 38.0243 48.2385C37.0727 46.5721 36.8189 44.7375 37.2948 42.9661C37.7707 41.1946 38.9551 39.5655 40.6987 38.2842C42.4422 37.0029 44.6669 36.1267 47.0923 35.766C49.5176 35.4053 52.0351 35.5764 54.3274 36.2575C56.6197 36.9387 58.5842 38.0995 59.9733 39.5936C61.3623 41.0877 62.1137 42.8483 62.1328 44.6533V44.6533C62.1714 45.8231 61.8935 46.987 61.315 48.0784C60.7366 49.1699 59.8689 50.1675 58.7616 51.0143C57.6543 51.8612 56.329 52.5406 54.8615 53.0137C53.394 53.4869 51.8131 53.7446 50.209 53.772C50.0062 53.7957 49.7995 53.7957 49.5967 53.772V53.866Z" fill="#4EA8DE"/>
<path d="M67.0312 91.9859C66.2249 91.9671 65.4215 92.0659 64.6682 92.2766C63.915 92.4872 63.227 92.8055 62.6446 93.2127C62.0623 93.6198 61.5973 94.1077 61.277 94.6477C60.9567 95.1877 60.7875 95.7689 60.7793 96.3572V110.223C60.7793 111.432 61.438 112.592 62.6105 113.447C63.7829 114.302 65.3731 114.783 67.0312 114.783C68.6894 114.783 70.2796 114.302 71.4521 113.447C72.6245 112.592 73.2832 111.432 73.2832 110.223V96.5452C73.309 95.9591 73.1745 95.3752 72.8876 94.8274C72.6007 94.2796 72.1672 93.7789 71.6123 93.3545C71.0574 92.9301 70.3922 92.5906 69.6555 92.3556C68.9188 92.1206 68.1253 91.9949 67.3213 91.9859H67.0312Z" fill="#5E60CE"/>
<path d="M32.2266 91.9859C31.4065 91.9543 30.5861 92.0432 29.8142 92.2476C29.0423 92.4519 28.3346 92.7673 27.7332 93.1752C27.1319 93.583 26.6492 94.0749 26.3139 94.6215C25.9785 95.1682 25.7974 95.7585 25.7812 96.3572V110.223C25.7813 111.432 26.4399 112.592 27.6124 113.447C28.7849 114.302 30.3751 114.783 32.0332 114.783C33.6913 114.783 35.2815 114.302 36.454 113.447C37.6265 112.592 38.2852 111.432 38.2852 110.223V96.5452C38.3109 95.9591 38.1764 95.3752 37.8896 94.8274C37.6027 94.2796 37.1692 93.7789 36.6142 93.3545C36.0593 92.9301 35.3941 92.5906 34.6574 92.3556C33.9207 92.1206 33.1272 91.995 32.3232 91.9859H32.2266Z" fill="#5E60CE"/>
<path d="M49.1455 91.9859C48.3414 91.9734 47.5417 92.0766 46.7923 92.2895C46.0429 92.5025 45.3583 92.821 44.7777 93.227C44.1971 93.6329 43.7319 94.1183 43.4086 94.6554C43.0853 95.1925 42.9103 95.7708 42.8936 96.3572V115.464C42.8936 116.673 43.5522 117.833 44.7247 118.688C45.8972 119.543 47.4874 120.023 49.1455 120.023C50.8036 120.023 52.3938 119.543 53.5663 118.688C54.7388 117.833 55.3975 116.673 55.3975 115.464V96.6627C55.4232 96.0767 55.2887 95.4927 55.0019 94.9449C54.715 94.3971 54.2815 93.8964 53.7265 93.472C53.1716 93.0477 52.5064 92.7081 51.7697 92.4731C51.033 92.2381 50.2395 92.1125 49.4355 92.1034L49.1455 91.9859Z" fill="#5E60CE"/>
</g>
<defs>
<clipPath id="clip0_101_23">
<rect width="99" height="120" fill="white"/>
</clipPath>
</defs>
</svg>
